<?xml version="1.0" standalone="no"?><!DOCTYPE svg PUBLIC "-//W3C//DTD SVG 1.1//EN" "http://www.w3.org/Graphics/SVG/1.1/DTD/svg11.dtd"><svg class="icon" height="512" viewBox="0 0 1024 1024" version="1.1" xmlns="http://www.w3.org/2000/svg"><path d="M512.000341 1024a510.292993 510.292993 0 0 1-362.017892-149.981767A510.224727 510.224727 0 0 1 0.000683 512.000341a510.224727 510.224727 0 0 1 149.981766-362.017892A510.224727 510.224727 0 0 1 512.000341 0.000683a510.292993 510.292993 0 0 1 362.017892 149.981766A510.224727 510.224727 0 0 1 1024 512.000341a510.292993 510.292993 0 0 1-149.981767 362.017892A510.224727 510.224727 0 0 1 512.000341 1024z m0-953.684698A442.162905 442.162905 0 0 0 70.315302 512.000341a442.162905 442.162905 0 0 0 441.685039 441.685039 442.162905 442.162905 0 0 0 441.685039-441.685039A442.162905 442.162905 0 0 0 512.000341 70.315302zM512.000341 569.41257l169.574287 169.642553a40.61864 40.61864 0 0 0 57.480495-57.480495L569.344303 512.000341l169.642554-169.574287a40.61864 40.61864 0 0 0-57.480495-57.480495L512.000341 454.65638 342.426054 284.945559a40.61864 40.61864 0 0 0-57.480495 57.480495L454.65638 512.000341 284.945559 681.574628a40.61864 40.61864 0 0 0 57.480495 57.480495L512.000341 569.344303z" /></svg>