<?xml version="1.0" standalone="no"?><!DOCTYPE svg PUBLIC "-//W3C//DTD SVG 1.1//EN" "http://www.w3.org/Graphics/SVG/1.1/DTD/svg11.dtd"><svg class="icon" height="512" viewBox="0 0 1024 1024" version="1.1" xmlns="http://www.w3.org/2000/svg"><path d="M510.865 512.347m-447.098 0a447.098 447.098 0 1 0 894.196 0 447.098 447.098 0 1 0-894.196 0Z" fill="#77B3D4" /><path d="M580.724 260.855H441.006c-23.149 0-41.915 18.766-41.915 41.915v405.182l74.516 111.774 37.258 55.887 37.258-55.887 74.516-111.774V302.77c0-23.149-18.766-41.915-41.915-41.915z" fill="#231F20" /><path d="M622.639 358.657c0 23.149-18.766 41.915-41.915 41.915H441.006c-23.149 0-41.915-18.766-41.915-41.915v-83.831c0-23.149 18.766-41.915 41.915-41.915h139.718c23.149 0 41.915 18.766 41.915 41.915v83.831z" fill="#C75C5C" /><path d="M399.09 344.686h55.887v335.323H399.09z" fill="#E0995E" /><path d="M454.978 344.686h111.774v363.267H454.978z" fill="#F5CF87" /><path d="M566.752 344.686h55.887v335.323h-55.887z" fill="#E0995E" /><path d="M510.865 847.671l37.258-55.888h-74.517z" fill="#4F5D73" /><path d="M399.09 680.009l74.516 111.774h74.517l74.516-111.774h-27.943l-27.944-27.944-55.887 55.888-55.886-55.888-27.945 27.944z" fill="#FFFFFF" /></svg>