<?xml version="1.0" standalone="no"?><!DOCTYPE svg PUBLIC "-//W3C//DTD SVG 1.1//EN" "http://www.w3.org/Graphics/SVG/1.1/DTD/svg11.dtd"><svg class="icon" height="512" viewBox="0 0 1024 1024" version="1.1" xmlns="http://www.w3.org/2000/svg"><path d="M97.8 334.6H244c23.2 0 42.2-20.2 42.2-44.8V136.4c0-24.6-19-44.8-42.2-44.8L55.8 289.8c0 24.6 18.8 44.8 42 44.8z m487.4 460.6l126-84-176.2-74L560 784c1 12.4 15.2 18.8 25.2 11.2z m132-592.2l176.2 73.8 29.8-70.8L747 132zM950.8 66.4L827.2 14.6c-14.6-6-31.4 0.8-37.6 15.4l-29 68.8 176.4 74 29.2-68.8c6-14.6-0.8-31.4-15.4-37.6zM725.015 678.077L548.73 604.064 703.259 236l176.286 74.014-154.53 368.062zM573.2 829.8c-12.4 9.4-30.2 1.6-31.6-14l-26.8-157.4c-1.8 0.6-3.8 0.8-5.8 0.8H266c-12.2 0-22.2-10-22.2-22.2s10-22.2 22.2-22.2h243.2c3 0 6 0.6 8.6 1.8L562 511.4H266c-12.2 0-22.2-10-22.2-22.2s10-22.2 22.2-22.2h314.6l158-376.4c-0.6 0-1.4-0.2-2-0.2H306.4V310c0 24-19.6 43.8-43.8 43.8H55.8v614c0 24 19.6 43.8 43.8 43.8h637c24 0 43.8-19.6 43.8-43.8V605l-50.6 120.4-156.6 104.4z m-100.8-30.2H256.2c-12.2 0-22.2-10-22.2-22.2s10-22.2 22.2-22.2h216.2c12.2 0 22.2 10 22.2 22.2s-10 22.2-22.2 22.2z" /></svg>