<svg id="SvgjsSvg1001" width="288" height="288" xmlns="http://www.w3.org/2000/svg" version="1.1" xmlns:xlink="http://www.w3.org/1999/xlink" xmlns:svgjs="http://svgjs.com/svgjs"><defs id="SvgjsDefs1002"></defs><g id="SvgjsG1008" transform="matrix(0.9167,0,0,0.9167,11.995200000000011,11.995200000000011)"><!--?xml version="1.0" encoding="UTF-8"?--><svg xmlns="http://www.w3.org/2000/svg" xmlns:xlink="http://www.w3.org/1999/xlink" version="1.1" id="Layer_1" x="0px" y="0px" width="288" height="288" viewBox="0 0 512 512" xml:space="preserve"><path d="M256 48C140.559 48 48 140.559 48 256c0 115.436 92.559 208 208 208 115.435 0 208-92.564 208-208 0-115.441-92.564-208-208-208zm104.002 282.881l-29.12 29.117L256 285.117l-74.881 74.881-29.121-29.117L226.881 256l-74.883-74.881 29.121-29.116L256 226.881l74.881-74.878 29.12 29.116L285.119 256l74.883 74.881z" fill="#e62020" class="color000 svgShape"></path><metadata><rdf:rdf xmlns:rdf="http://www.w3.org/1999/02/22-rdf-syntax-ns#" xmlns:rdfs="http://www.w3.org/2000/01/rdf-schema#" xmlns:dc="http://purl.org/dc/elements/1.1/"><rdf:description about="https://iconscout.com/legal#licenses" dc:title="android,cancel" dc:description="android,cancel" dc:publisher="Iconscout" dc:date="2017-09-24" dc:format="image/svg+xml" dc:language="en"><dc:creator><rdf:bag><rdf:li>Benjamin J Sperry</rdf:li></rdf:bag></dc:creator></rdf:description></rdf:rdf></metadata></svg></g></svg>