<?xml version="1.0" standalone="no"?><!DOCTYPE svg PUBLIC "-//W3C//DTD SVG 1.1//EN" "http://www.w3.org/Graphics/SVG/1.1/DTD/svg11.dtd"><svg class="icon" height="512" viewBox="0 0 1024 1024" version="1.1" xmlns="http://www.w3.org/2000/svg"><path d="M296.96 737.28l-10.24 0L105.813333 580.266667l3.413333-20.48L467.626667 194.56l177.493333 184.32L296.96 737.28 296.96 737.28zM706.56 317.44l-184.32-177.493333 129.706667-133.12 54.613333-3.413333 133.12 133.12-6.826667 51.2L706.56 317.44 706.56 317.44zM51.2 826.026667l-40.96 13.653333 17.066667-58.026667 51.2-126.293333L204.8 761.173333 51.2 826.026667 51.2 826.026667zM61.44 918.186667l904.533333 0c27.306667 0 51.2 23.893333 51.2 51.2 0 27.306667-23.893333 51.2-51.2 51.2L61.44 1020.586667c-27.306667 0-51.2-23.893333-51.2-51.2C10.24 938.666667 34.133333 918.186667 61.44 918.186667L61.44 918.186667zM962.56 791.893333 460.8 791.893333c-27.306667 0-51.2-23.893333-51.2-51.2 0-27.306667 23.893333-51.2 51.2-51.2l501.76 0c27.306667 0 51.2 23.893333 51.2 51.2C1013.76 768 989.866667 791.893333 962.56 791.893333L962.56 791.893333zM962.56 791.893333" /></svg>